# xmcd CD database file
#
# Track frame offsets:
#	150
#	19820
#	36692
#	56185
#	76497
#	91302
#	119187
#	133282
#	155162
#	171540
#	186485
#	201595
#	216830
#	230947
#	245065
#	258397
#	273370
#	293160
#
# Disc length: 4054 seconds
#
# Revision: 4
# Processed by: cddbd v1.5.1PL2 Copyright (c) Steve Scherf et al.
# Submitted via: CDex 1.51
#
DISCID=370fd412
DTITLE=Various Artist - Hot Jazz on Blue Note - Disc 1
DYEAR=1996
DGENRE=Jazz
TTITLE0=Meade "Lux" Lewis - Blues Whistle
TTITLE1=Josh White Trio - Careless Love
TTITLE2=Edmond Hall Celeste Quartet - Profoundly Blue No. 2
TTITLE3=George Lewis and his New Orleans Stompers - Gettysburg March
TTITLE4=George Lewis and his New Orleans Stompers - Burgundy Street Blues
TTITLE5=George Lewis and his New Orleans Stompers - Over the Waves
TTITLE6=George Lewis and his New Orleans Stompers - When You Wore a Tulip
TTITLE7=Bunk Johnson and Sidney Bechet - Days Beyond Recall
TTITLE8=Sidney Bechet's Blue Note Jazzmen - High Society
TTITLE9=Art Hodes's Hot Seven - Mr Jelly Lord
TTITLE10=Art Hodes's Hot Seven - Wolverine Blues
TTITLE11=Baby Dodds's Jazz Four - Winin' Boy Blues
TTITLE12=Art Hodes's Chicagoan's - Doctor Jazz
TTITLE13=Art Hodes's Chicagoan's - Shoe Shiner's Drag
TTITLE14=Bechet-Nicholas Blue Five - Blame It on the Blues
TTITLE15=Bechet-Nicholas Blue Five - Weary Way Blues
TTITLE16=Sidney De Paris's Blue Note Stompers - Moose March
TTITLE17=Baby Dodds's Jazz Four - Careless Love
EXTD=Smithsonian Collection YEAR: 1996
EXTT0=
EXTT1=
EXTT2=
EXTT3=
EXTT4=
EXTT5=
EXTT6=
EXTT7=
EXTT8=
EXTT9=
EXTT10=
EXTT11=
EXTT12=
EXTT13=
EXTT14=
EXTT15=
EXTT16=
EXTT17=
PLAYORDER=
